# xmcd
#
# Track frame offsets: 
#        150
#        5021
#        20495
#        35458
#        53899
#        75269
#        92567
#        110073
#        128768
#        148901
#        171624
#        191648
#        210825
#        227751
#        246111
#
# Disc length: 3467 seconds
#
# Revision: 0
# Processed by: cddbd v1.5.2PL0 Copyright (c) Steve Scherf et al.
# Submitted via: ExactAudioCopyFreeDBPlugin 1.0
#
DISCID=c80d890f
DTITLE=Mason Family - E.M.I.M.
DYEAR=2015
DGENRE=No, thanks.
TTITLE0=Respektlos
TTITLE1=E.M.I.M.
TTITLE2=Code 13(6)
TTITLE3=Patronen fallen
TTITLE4=Hublot
TTITLE5=Faxxxen
TTITLE6=Pali vor dem Mund
TTITLE7=Saphir
TTITLE8=Booyah
TTITLE9=Medusa
TTITLE10=Bitte fick mich
TTITLE11=Alles Paparazzi
TTITLE12=Tiger Woods
TTITLE13=Guillotine
TTITLE14=Mike Tyson Blick
EXTD=
EXTT0=
EXTT1=
EXTT2=
EXTT3=
EXTT4=
EXTT5=
EXTT6=
EXTT7=
EXTT8=
EXTT9=
EXTT10=
EXTT11=
EXTT12=
EXTT13=
EXTT14=
PLAYORDER=
